<?xml version="1.0" encoding="UTF-8" standalone="no"?> <svg width="64" height="64" viewBox="0 0 64 64" fill="none" xmlns="http://www.w3.org/2000/svg">
<path d="M52 46V42L49.65 41.53C49.4658 40.8666 49.2005 40.2284 48.86 39.63L50.19 37.64L47.36 34.81L45.37 36.14C44.7716 35.7995 44.1334 35.5342 43.47 35.35L43 33H39L38.53 35.35C37.8666 35.5342 37.2284 35.7995 36.63 36.14L34.64 34.81L31.81 37.64L33.14 39.63C32.7995 40.2284 32.5342 40.8666 32.35 41.53L30 42V46L32.35 46.47C32.5342 47.1334 32.7995 47.7716 33.14 48.37L31.81 50.36L34.64 53.19L36.63 51.86C37.2284 52.2005 37.8666 52.4658 38.53 52.65L39 55H43L43.47 52.65C44.1334 52.4658 44.7716 52.2005 45.37 51.86L47.36 53.19L50.19 50.36L48.86 48.37C49.2005 47.7716 49.4658 47.1334 49.65 46.47L52 46ZM41 49C39.6739 49 38.4021 48.4732 37.4645 47.5355C36.5268 46.5979 36 45.3261 36 44C35.9976 43.6641 36.0311 43.3288 36.1 43C36.3305 41.8706 36.9442 40.8556 37.8371 40.1267C38.73 39.3978 39.8473 38.9998 41 39C41.6875 39.0006 42.3677 39.1401 43 39.41C44.0573 39.8668 44.9246 40.6745 45.4551 41.6969C45.9857 42.7192 46.147 43.8933 45.9119 45.0208C45.6767 46.1483 45.0595 47.1601 44.1646 47.8851C43.2696 48.6101 42.1518 49.004 41 49V49Z" fill="#BDDBFF"/>
<path d="M5 3H41C41.5299 3.00158 42.0377 3.2128 42.4125 3.58753C42.7872 3.96227 42.9984 4.47005 43 5V9H3V5C3.00158 4.47005 3.2128 3.96227 3.58753 3.58753C3.96227 3.2128 4.47005 3.00158 5 3V3Z" fill="#BDDBFF"/>
<path d="M23 21H43V27H21V23C21.0016 22.4701 21.2128 21.9623 21.5875 21.5875C21.9623 21.2128 22.4701 21.0016 23 21Z" fill="#BDDBFF"/>
<path d="M61 23V27H43V21H59C59.5299 21.0016 60.0377 21.2128 60.4125 21.5875C60.7872 21.9623 60.9984 22.4701 61 23V23Z" fill="#BDDBFF"/>
<path d="M5 44H18V42H5C4.73478 42 4.48043 41.8946 4.29289 41.7071C4.10536 41.5196 4 41.2652 4 41V10H42V18H44V5C44 4.20435 43.6839 3.44129 43.1213 2.87868C42.5587 2.31607 41.7956 2 41 2H5C4.20435 2 3.44129 2.31607 2.87868 2.87868C2.31607 3.44129 2 4.20435 2 5V41C2 41.7956 2.31607 42.5587 2.87868 43.1213C3.44129 43.6839 4.20435 44 5 44ZM5 4H41C41.2652 4 41.5196 4.10536 41.7071 4.29289C41.8946 4.48043 42 4.73478 42 5V8H4V5C4 4.73478 4.10536 4.48043 4.29289 4.29289C4.48043 4.10536 4.73478 4 5 4V4Z" fill="#3D9AE2"/>
<path d="M8 5H6V7H8V5Z" fill="#3D9AE2"/>
<path d="M12 5H10V7H12V5Z" fill="#3D9AE2"/>
<path d="M16 5H14V7H16V5Z" fill="#3D9AE2"/>
<path d="M22 15H20V17H22V15Z" fill="#3D9AE2"/>
<path d="M26 15H24V17H26V15Z" fill="#3D9AE2"/>
<path d="M30 15H28V17H30V15Z" fill="#3D9AE2"/>
<path d="M18 15H16V17H18V15Z" fill="#3D9AE2"/>
<path d="M59 20H23C22.2044 20 21.4413 20.3161 20.8787 20.8787C20.3161 21.4413 20 22.2044 20 23V59C20 59.7956 20.3161 60.5587 20.8787 61.1213C21.4413 61.6839 22.2044 62 23 62H59C59.7956 62 60.5587 61.6839 61.1213 61.1213C61.6839 60.5587 62 59.7956 62 59V23C62 22.2044 61.6839 21.4413 61.1213 20.8787C60.5587 20.3161 59.7956 20 59 20V20ZM23 22H59C59.2652 22 59.5196 22.1054 59.7071 22.2929C59.8946 22.4804 60 22.7348 60 23V26H22V23C22 22.7348 22.1054 22.4804 22.2929 22.2929C22.4804 22.1054 22.7348 22 23 22ZM59 60H23C22.7348 60 22.4804 59.8946 22.2929 59.7071C22.1054 59.5196 22 59.2652 22 59V28H60V59C60 59.2652 59.8946 59.5196 59.7071 59.7071C59.5196 59.8946 59.2652 60 59 60Z" fill="#3D9AE2"/>
<path d="M26 23H24V25H26V23Z" fill="#3D9AE2"/>
<path d="M30 23H28V25H30V23Z" fill="#3D9AE2"/>
<path d="M34 23H32V25H34V23Z" fill="#3D9AE2"/>
<path d="M41 38C39.8133 38 38.6533 38.3519 37.6666 39.0112C36.6799 39.6705 35.9109 40.6075 35.4567 41.7039C35.0026 42.8003 34.8838 44.0067 35.1153 45.1705C35.3468 46.3344 35.9182 47.4035 36.7574 48.2426C37.5965 49.0818 38.6656 49.6532 39.8295 49.8847C40.9933 50.1162 42.1997 49.9974 43.2961 49.5433C44.3925 49.0892 45.3295 48.3201 45.9888 47.3334C46.6481 46.3467 47 45.1867 47 44C46.9984 42.4092 46.3658 40.884 45.2409 39.7591C44.116 38.6342 42.5908 38.0016 41 38ZM41 48C40.2089 48 39.4355 47.7654 38.7777 47.3259C38.1199 46.8864 37.6072 46.2616 37.3045 45.5307C37.0017 44.7998 36.9225 43.9956 37.0769 43.2196C37.2312 42.4437 37.6122 41.731 38.1716 41.1716C38.731 40.6122 39.4437 40.2312 40.2196 40.0769C40.9956 39.9225 41.7998 40.0017 42.5307 40.3045C43.2616 40.6072 43.8864 41.1199 44.3259 41.7777C44.7654 42.4355 45 43.2089 45 44C45 45.0609 44.5786 46.0783 43.8284 46.8284C43.0783 47.5786 42.0609 48 41 48Z" fill="#3D9AE2"/>
<path d="M52.2 41.02L50.426 40.665C50.3098 40.3345 50.1763 40.0104 50.026 39.694L51.026 38.194C51.1543 38.0016 51.2119 37.7707 51.1891 37.5406C51.1663 37.3106 51.0645 37.0955 50.901 36.932L48.071 34.1C47.9075 33.9365 47.6924 33.8347 47.4623 33.8119C47.2323 33.7891 47.0014 33.8467 46.809 33.975L45.309 34.975C44.9926 34.8247 44.6685 34.6912 44.338 34.575L43.98 32.8C43.9339 32.5741 43.8112 32.3711 43.6326 32.2253C43.454 32.0796 43.2305 32 43 32H39C38.7695 32 38.546 32.0796 38.3674 32.2253C38.1888 32.3711 38.0661 32.5741 38.02 32.8L37.665 34.574C37.3345 34.6902 37.0104 34.8237 36.694 34.974L35.194 33.974C35.0016 33.8457 34.7707 33.7881 34.5406 33.8109C34.3106 33.8337 34.0955 33.9355 33.932 34.099L31.1 36.929C30.9365 37.0925 30.8347 37.3076 30.8119 37.5377C30.7891 37.7677 30.8467 37.9986 30.975 38.191L31.975 39.691C31.8247 40.0074 31.6912 40.3315 31.575 40.662L29.8 41.02C29.5741 41.0661 29.3711 41.1888 29.2253 41.3674C29.0796 41.546 29 41.7695 29 42V46C29 46.2305 29.0796 46.454 29.2253 46.6326C29.3711 46.8112 29.5741 46.9339 29.8 46.98L31.574 47.335C31.6902 47.6655 31.8237 47.9896 31.974 48.306L30.974 49.806C30.8457 49.9984 30.7881 50.2293 30.8109 50.4594C30.8337 50.6894 30.9355 50.9045 31.099 51.068L33.929 53.9C34.0925 54.0635 34.3076 54.1653 34.5377 54.1881C34.7677 54.2109 34.9986 54.1533 35.191 54.025L36.691 53.025C37.0074 53.1753 37.3315 53.3088 37.662 53.425L38.02 55.2C38.0661 55.4259 38.1888 55.6289 38.3674 55.7747C38.546 55.9204 38.7695 56 39 56H43C43.2305 56 43.454 55.9204 43.6326 55.7747C43.8112 55.6289 43.9339 55.4259 43.98 55.2L44.335 53.426C44.6655 53.3098 44.9896 53.1763 45.306 53.026L46.806 54.026C46.9984 54.1543 47.2293 54.2119 47.4594 54.1891C47.6894 54.1663 47.9045 54.0645 48.068 53.901L50.9 51.071C51.0635 50.9075 51.1653 50.6924 51.1881 50.4623C51.2109 50.2323 51.1533 50.0014 51.025 49.809L50.025 48.309C50.1753 47.9926 50.3088 47.6685 50.425 47.338L52.2 46.98C52.4259 46.9339 52.6289 46.8112 52.7747 46.6326C52.9204 46.454 53 46.2305 53 46V42C53 41.7695 52.9204 41.546 52.7747 41.3674C52.6289 41.1888 52.4259 41.0661 52.2 41.02ZM51 45.18L49.452 45.49C49.272 45.5261 49.1053 45.6111 48.9704 45.7356C48.8354 45.8601 48.7374 46.0194 48.687 46.196C48.519 46.7839 48.2841 47.3506 47.987 47.885C47.8975 48.0455 47.854 48.2276 47.8612 48.4113C47.8685 48.5949 47.9262 48.773 48.028 48.926L48.902 50.236L47.232 51.906L45.922 51.032C45.769 50.9302 45.5909 50.8725 45.4073 50.8652C45.2236 50.858 45.0415 50.9015 44.881 50.991C44.3466 51.2881 43.7799 51.523 43.192 51.691C43.0154 51.7414 42.8561 51.8395 42.7316 51.9744C42.6071 52.1093 42.5221 52.276 42.486 52.456L42.18 54H39.82L39.51 52.452C39.4739 52.272 39.3889 52.1053 39.2644 51.9704C39.1399 51.8354 38.9806 51.7374 38.804 51.687C38.2161 51.519 37.6494 51.2841 37.115 50.987C36.9545 50.8975 36.7724 50.854 36.5887 50.8612C36.4051 50.8685 36.227 50.9262 36.074 51.028L34.764 51.902L33.094 50.232L33.968 48.922C34.0698 48.769 34.1275 48.5909 34.1348 48.4073C34.142 48.2236 34.0985 48.0415 34.009 47.881C33.7119 47.3466 33.477 46.7799 33.309 46.192C33.2586 46.0154 33.1605 45.8561 33.0256 45.7316C32.8907 45.6071 32.724 45.5221 32.544 45.486L31 45.18V42.82L32.548 42.51C32.728 42.4739 32.8947 42.3889 33.0296 42.2644C33.1646 42.1399 33.2626 41.9806 33.313 41.804C33.481 41.2161 33.7159 40.6494 34.013 40.115C34.1025 39.9545 34.146 39.7724 34.1388 39.5887C34.1315 39.4051 34.0738 39.227 33.972 39.074L33.098 37.764L34.768 36.094L36.078 36.968C36.231 37.0698 36.4091 37.1275 36.5927 37.1348C36.7764 37.142 36.9585 37.0985 37.119 37.009C37.6534 36.7119 38.2201 36.477 38.808 36.309C38.9846 36.2586 39.1439 36.1605 39.2684 36.0256C39.3929 35.8907 39.4779 35.724 39.514 35.544L39.82 34H42.18L42.49 35.548C42.5261 35.728 42.6111 35.8947 42.7356 36.0296C42.8601 36.1646 43.0194 36.2626 43.196 36.313C43.7839 36.481 44.3506 36.7159 44.885 37.013C45.0455 37.1025 45.2276 37.146 45.4113 37.1388C45.5949 37.1315 45.773 37.0738 45.926 36.972L47.236 36.098L48.906 37.768L48.032 39.078C47.9302 39.231 47.8725 39.4091 47.8652 39.5927C47.858 39.7764 47.9015 39.9585 47.991 40.119C48.2881 40.6534 48.523 41.2201 48.691 41.808C48.7414 41.9846 48.8395 42.1439 48.9744 42.2684C49.1093 42.3929 49.276 42.4779 49.456 42.514L51 42.82V45.18Z" fill="#3D9AE2"/>
<path d="M6.345 45.533L4.576 46.467C7.48912 51.9941 12.0059 56.5109 17.533 59.424L18.467 57.656C13.2956 54.9308 9.06981 50.7046 6.345 45.533V45.533Z" fill="#3D9AE2"/>
<path d="M57.655 18.467L59.424 17.533C56.5109 12.0059 51.9941 7.48912 46.467 4.576L45.533 6.344C50.7044 9.06923 54.9302 13.2954 57.655 18.467V18.467Z" fill="#3D9AE2"/>
<path d="M2.92125 47.6341L1.18911 48.6339L2.18896 50.3661L3.9211 49.3662L2.92125 47.6341Z" fill="#3D9AE2"/>
<path d="M6.07884 52.4459L4.54648 53.7312L5.83173 55.2635L7.36409 53.9783L6.07884 52.4459Z" fill="#3D9AE2"/>
<path d="M10.0218 56.6366L8.73651 58.1689L10.2689 59.4542L11.5541 57.9218L10.0218 56.6366Z" fill="#3D9AE2"/>
<path d="M14.6343 60.0788L13.6345 61.811L15.3666 62.8108L16.3665 61.0787L14.6343 60.0788Z" fill="#3D9AE2"/>
<path d="M61.8106 13.6332L60.0785 14.633L61.0783 16.3652L62.8105 15.3653L61.8106 13.6332Z" fill="#3D9AE2"/>
<path d="M58.1689 8.73679L56.6365 10.022L57.9218 11.5544L59.4541 10.2692L58.1689 8.73679Z" fill="#3D9AE2"/>
<path d="M53.7317 4.54546L52.4465 6.07782L53.9788 7.36307L55.2641 5.83072L53.7317 4.54546Z" fill="#3D9AE2"/>
<path d="M48.634 1.18893L47.6341 2.92107L49.3662 3.92092L50.3661 2.18878L48.634 1.18893Z" fill="#3D9AE2"/>
<path d="M16 21H8V23H16V21Z" fill="#3D9AE2"/>
<path d="M16 25H8V27H16V25Z" fill="#3D9AE2"/>
<path d="M16 29H8V31H16V29Z" fill="#3D9AE2"/>
<path d="M16 33H8V35H16V33Z" fill="#3D9AE2"/>
<path d="M16 37H8V39H16V37Z" fill="#3D9AE2"/>
</svg>
