<?xml version="1.0" encoding="UTF-8" standalone="no"?> <svg width="512" height="512" viewBox="0 0 512 512" fill="none" xmlns="http://www.w3.org/2000/svg">
<path d="M454.3 344H57.7C56.8 344 56 343.3 56 342.3V108C56 97 65 88 76 88H436C447 88 456 97 456 108V342.3C456 343.3 455.3 344 454.3 344Z" fill="#F3D165"/>
<path d="M454.3 344H57.7C56.8 344 56 343.3 56 342.3V296H456V342.3C456 343.3 455.3 344 454.3 344Z" fill="#7ABCDD"/>
<path d="M272 328H240C235.6 328 232 324.4 232 320C232 315.6 235.6 312 240 312H272C276.4 312 280 315.6 280 320C280 324.4 276.4 328 272 328Z" fill="#F3D165"/>
<path d="M280 344H232V392H280V344Z" fill="#006170"/>
<path d="M336 424H176C176 406.3 190.3 392 208 392H304C321.7 392 336 406.3 336 424Z" fill="#7ABCDD"/>
<path d="M180 424H44C33 424 24 415 24 404V220C24 209 33 200 44 200H180C191 200 200 209 200 220V404C200 415 191 424 180 424Z" fill="#006170"/>
<path d="M180 424H44C33 424 24 415 24 404V392H200V404C200 415 191 424 180 424Z" fill="#F3D165"/>
<path d="M473 424H391C382.7 424 376 417.3 376 409V263C376 254.7 382.7 248 391 248H473C481.3 248 488 254.7 488 263V409C488 417.3 481.3 424 473 424Z" fill="#006170"/>
<path d="M432.2 408C427.8 408 424.2 404.4 424.2 400C424.2 395.6 427.7 392 432.2 392H432.3C436.7 392 440.3 395.6 440.3 400C440.3 404.4 436.6 408 432.2 408Z" fill="#F3D165"/>
<path d="M464 272H400V376H464V272Z" fill="#F3D165"/>
<path d="M48 248C46 248 43.9 247.2 42.3 245.7C39.2 242.6 39.2 237.5 42.3 234.4L54.3 222.4C57.4 219.3 62.5 219.3 65.6 222.4C68.7 225.5 68.7 230.6 65.6 233.7L53.6 245.7C52.1 247.2 50 248 48 248Z" fill="#F3D165"/>
<path d="M56 288C54 288 51.9 287.2 50.3 285.7C47.2 282.6 47.2 277.5 50.3 274.4L98.3 226.4C101.4 223.3 106.5 223.3 109.6 226.4C112.7 229.5 112.7 234.6 109.6 237.7L61.6 285.7C60.1 287.2 58 288 56 288Z" fill="#F3D165"/>
<path d="M88 144C86 144 83.9 143.2 82.3 141.7C79.2 138.6 79.2 133.5 82.3 130.4L98.3 114.4C101.4 111.3 106.5 111.3 109.6 114.4C112.7 117.5 112.7 122.6 109.6 125.7L93.6 141.7C92.1 143.2 90 144 88 144ZM101.7 173.7L149.7 125.7C152.8 122.6 152.8 117.5 149.7 114.4C146.6 111.3 141.5 111.3 138.4 114.4L90.4 162.4C87.3 165.5 87.3 170.6 90.4 173.7C92 175.3 94 176 96.1 176C98.2 176 100.1 175.2 101.7 173.7Z" fill="#006170"/>
</svg>
