<?xml version="1.0" encoding="UTF-8" standalone="no"?> <svg xmlns="http://www.w3.org/2000/svg" viewBox="0 0 64 64"><defs><style>.cls-1{fill:#e0e5eb;}.cls-1,.cls-4,.cls-5,.cls-9{fill-rule:evenodd;}.cls-2{fill:#4f9ff6;}.cls-3{fill:#3f76d3;}.cls-4{fill:#bec7d6;}.cls-5{fill:#f64f7d;}.cls-6,.cls-9{fill:#e43b74;}.cls-7{fill:#fcbf4a;}.cls-8{fill:#57cc98;}</style></defs><g id="Web_Promotion" data-name="Web Promotion"><path class="cls-1" d="M60,10.37A2.36,2.36,0,0,0,57.63,8H6.37A2.36,2.36,0,0,0,4,10.37V53.63A2.37,2.37,0,0,0,6.37,56H57.63A2.37,2.37,0,0,0,60,53.63Z"/><path class="cls-2" d="M25.07,34.36a1.83,1.83,0,0,1,.35-2.28c1.71-1.57,5.06-4.62,7.08-6.48a1.85,1.85,0,0,1,2.84.44l3.19,5.53a1.84,1.84,0,0,1-1,2.67l-9.15,2.9a1.84,1.84,0,0,1-2.15-.84Z"/><path class="cls-3" d="M29.44,36.79l3.38,3.05a1.44,1.44,0,0,0,2-.1l.58-.64a1.44,1.44,0,0,0-.11-2l-1.76-1.59Z"/><path class="cls-2" d="M23.47,44H40.53a3.35,3.35,0,1,1,0,6.69H23.47a3.35,3.35,0,1,1,0-6.69Z"/><path class="cls-4" d="M60,10.37A2.37,2.37,0,0,0,57.63,8H51.81V56h5.82A2.37,2.37,0,0,0,60,53.63Z"/><path class="cls-5" d="M60,10.37A2.36,2.36,0,0,0,57.63,8H6.37A2.36,2.36,0,0,0,4,10.37v8.17H60Z"/><path class="cls-6" d="M12.31,13.27a2.13,2.13,0,1,1-2.13-2.13A2.13,2.13,0,0,1,12.31,13.27Z"/><path class="cls-7" d="M19.81,13.27a2.13,2.13,0,1,1-2.13-2.13A2.13,2.13,0,0,1,19.81,13.27Z"/><path class="cls-8" d="M27.31,13.27a2.13,2.13,0,1,1-2.13-2.13A2.13,2.13,0,0,1,27.31,13.27Z"/><path class="cls-9" d="M60,10.37A2.36,2.36,0,0,0,57.63,8H51.81V18.54H60Z"/></g></svg>